<svg width="14" height="14" viewBox="0 0 14 14" fill="none" xmlns="http://www.w3.org/2000/svg">
<path fill-rule="evenodd" clip-rule="evenodd" d="M1.66683 6.3335C1.66683 3.75617 3.75617 1.66683 6.3335 1.66683C8.91083 1.66683 11.0002 3.75617 11.0002 6.3335C11.0002 7.59077 10.503 8.73191 9.69447 9.57104C9.67163 9.5886 9.64966 9.60784 9.62873 9.62876C9.60781 9.64969 9.58857 9.67165 9.57101 9.6945C8.73189 10.503 7.59075 11.0002 6.3335 11.0002C3.75617 11.0002 1.66683 8.91083 1.66683 6.3335ZM10.0786 11.0214C9.05216 11.8425 7.75016 12.3335 6.3335 12.3335C3.01979 12.3335 0.333496 9.64721 0.333496 6.3335C0.333496 3.01979 3.01979 0.333496 6.3335 0.333496C9.64721 0.333496 12.3335 3.01979 12.3335 6.3335C12.3335 7.75018 11.8425 9.05219 11.0214 10.0786L13.4715 12.5288C13.7319 12.7891 13.7319 13.2112 13.4715 13.4716C13.2112 13.7319 12.7891 13.7319 12.5287 13.4716L10.0786 11.0214Z" fill="#333333"/>
</svg>
